<svg xmlns="http://www.w3.org/2000/svg" viewBox="0 0 539.96 203.49"><g id="Layer_2" data-name="Layer 2"><g id="Logo"><path d="M220.28,59.49h30.27v3.27H224v45.91h22.16v3.26H224v28.7h26.55v3.26H220.28Z" style="fill:#393a44"/><path d="M265.52,59.49v81.14h26.1v3.26H261.8V59.49Z" style="fill:#393a44"/><path d="M328.08,145.46H327a23.68,23.68,0,0,1-17.49-7.2q-7.15-7.2-7.15-18.12V59.49H306V120a21.74,21.74,0,0,0,6.18,15.87,21.75,21.75,0,0,0,30.56.06q6.12-6.26,6.13-15.93V59.49h3.71v60.43q0,11-7.14,18.29A23.52,23.52,0,0,1,328.08,145.46Z" style="fill:#393a44"/><path d="M396.44,64a18.84,18.84,0,0,0-10-2.7,13.7,13.7,0,0,0-9.4,3.44,11.89,11.89,0,0,0-3.88,9.39v.56q0,7.09,7.88,12.94a78.65,78.65,0,0,0,7.59,4.9q4.23,2.42,8.44,5.18a60.38,60.38,0,0,1,7.65,5.85,24.49,24.49,0,0,1,5.63,7.59,22.32,22.32,0,0,1,2.19,9.9v1.13q0,10.7-7.25,17t-17.95,6.3q-14.07,0-21.83-11.59V127.8a25.41,25.41,0,0,0,8.61,10.41q5.68,4,14.12,4a21.53,21.53,0,0,0,14.63-5.4q6.18-5.4,6.19-14.41v-.67a19,19,0,0,0-2.93-10.3,25.57,25.57,0,0,0-7.31-7.65q-4.39-3-9.57-6.24t-9.56-6.08a25.24,25.24,0,0,1-7.32-7.09A16.19,16.19,0,0,1,369.49,75v-.79q0-7.87,5.06-12A19.06,19.06,0,0,1,387,58q10.35,0,16.43,7.65v5.74A19.49,19.49,0,0,0,396.44,64Z" style="fill:#393a44"/><path d="M453.88,59.49v3.27H434.64v81.13h-3.71V62.76H411.46V59.49Z" style="fill:#393a44"/><path d="M465.13,59.49h3.72v84.4h-3.72Z" style="fill:#393a44"/><path d="M486.29,59.49h3.6V90.44l35.67-30.95h4.5L491.47,93.14,540,143.89h-5L490,97v46.92h-3.71Z" style="fill:#393a44"/><circle cx="101.69" cy="101.75" r="99.16" style="fill:#393a44"/><path d="M101.69,0A101.75,101.75,0,1,0,203.38,101.75,101.83,101.83,0,0,0,101.69,0ZM195.2,104.92q-.06,1.74-.18,3.48c-.05.7-.12,1.41-.19,2.11,0,.43-.08.86-.13,1.29a94.57,94.57,0,0,1-1.9,11.14A32.68,32.68,0,0,0,191,112.13c-7-19.91-34-29.95-34-29.95s-15.71,22.23-8.71,42.13c2.36,6.74,7,12.34,12.16,16.81l0,.09c-1.14,2.27-2.37,4.49-3.71,6.65-.69-.68-9.52-5.75-22.64-9.64a63.36,63.36,0,0,0,1.88-12.16,2.32,2.32,0,0,0,0-.53,8,8,0,1,0-5.51,7.85c-.23,1.21-.5,2.41-.81,3.61-11.26-2.87-25-4.58-39.26-2.24a90.74,90.74,0,0,0-24.79,8.05c-4.13-5.11-10.22-10.56-18.24-12.18a26.45,26.45,0,0,0-5.22-.5c-10.89,0-21.26,6.31-25.71,9.4-.75-1.6-1.43-3.24-2.07-4.89a10.25,10.25,0,0,0,2.89.41,10.49,10.49,0,0,0,7.49-3.11h0a10.6,10.6,0,0,0-15-15l-.12.13a95.26,95.26,0,0,1-1.23-12.71c0-.1,0-.21,0-.31,0-1.4,0-2.79,0-4.19,0-.38,0-.75,0-1.13,0-1,.08-2,.15-3s.13-1.8.21-2.71c.05-.45.09-.91.14-1.37a95.06,95.06,0,0,1,1.85-10.88,32.72,32.72,0,0,0,1.81,10.82c7,19.89,34.13,29.87,34.13,29.87S62.26,99.19,55.21,79.3c-2.45-6.9-7.3-12.6-12.6-17.11a70.19,70.19,0,0,1,4.51-7.83,2.35,2.35,0,0,0,.66,1.38c.68.68,8.95,6,21.67,9.95a62.89,62.89,0,0,0-1.77,11.66,2.24,2.24,0,0,0,0,.52A8,8,0,1,0,73.24,70c.2-1,.43-2.06.68-3.08a88.84,88.84,0,0,0,37,1.93A96.15,96.15,0,0,0,137.54,60c4.11,5.33,10.39,11.25,18.8,13a25.59,25.59,0,0,0,5.22.51c10.88,0,21.27-6.25,25.72-9.33.69,1.46,1.31,3,1.9,4.45a10.73,10.73,0,0,0-2.89-.4,10.58,10.58,0,0,0-7.49,3.12h0a10.6,10.6,0,1,0,15,14.95.69.69,0,0,0,.11-.13,94.17,94.17,0,0,1,1.29,13.28v.13c0,1.38,0,2.76,0,4.14Zm-27.14,62.81A93.62,93.62,0,0,1,150,181.94l-.16.1c-1.2.72-2.42,1.42-3.65,2.08-.27.15-.55.29-.83.43q-1.51.81-3.06,1.56l-1.35.62q-1.31.6-2.61,1.17l-1.79.72q-1.11.45-2.25.87c-.71.27-1.44.52-2.16.77l-1.93.64c-.83.26-1.66.51-2.5.75l-1.64.46c-.94.25-1.88.48-2.83.7l-1.36.31c-1,.22-2.08.43-3.13.62l-1.09.2c-1.14.19-2.28.37-3.43.52l-.83.1c-1.23.15-2.47.28-3.71.39l-.57,0c-1.32.1-2.66.18-4,.23H105c16.27-5.05,30.72-17,40.69-27.11,1.07-1,2.12-2,3.15-3a83.81,83.81,0,0,0,10.71-13.2l.16-.24s0,0,0,0a85.12,85.12,0,0,0,4.35-7.51h0l0-.05a83,83,0,0,0,15.71,9.13A92.81,92.81,0,0,1,168.06,167.73Zm-149.59-24c4.22-3,16.63-10.79,27.86-8.52,6.3,1.28,11.32,5.56,14.91,9.82A117.09,117.09,0,0,0,38.1,161.52C27.54,158.87,20.73,147.89,18.47,143.68Zm48.36,9.55c-3.73,2.63-13.86,9-23.93,8.91a96.34,96.34,0,0,1,20.86-13.88A51.67,51.67,0,0,1,66.83,153.23ZM38.65,166.39c15.68,2.76,31.89-10.1,32.58-10.65a2.33,2.33,0,0,0,.66-2.75A48.14,48.14,0,0,0,68,146.25a95.07,95.07,0,0,1,23-6.95c13-2.13,26.27-.89,37.38,1.62a58.31,58.31,0,0,1-73.51,37A79.27,79.27,0,0,1,38,167.22C38.17,167,38.41,166.67,38.65,166.39Zm109.06-6.79c-.7.77-1.41,1.52-2.14,2.26a80,80,0,0,1-65,23.13c.17,0,.35,0,.52-.06A63,63,0,0,0,132.91,142c10.48,2.83,18.42,6.63,21.28,9.27A78.68,78.68,0,0,1,147.71,159.6Zm-31.23,25.82a62.41,62.41,0,0,1-19.37,7c-13.56,2.23-26.78-2-37.48-7.48A85.31,85.31,0,0,0,116.48,185.42ZM11.25,125.35a6,6,0,1,1,10.11,3.31h0a6,6,0,0,1-8.45,0,5.78,5.78,0,0,1-1.36-2.2C11.45,126.09,11.34,125.72,11.25,125.35ZM33.61,37.67l.1-.1c.63-.67,1.26-1.33,1.91-2A94.91,94.91,0,0,1,49.88,23.87l.09-.06c1.19-.79,2.4-1.56,3.63-2.3l.59-.34q1.59-.95,3.21-1.83l1-.54c.94-.49,1.89-1,2.85-1.43l1.43-.67c.83-.38,1.67-.75,2.51-1.11L67,14.85q1.09-.43,2.19-.84c.73-.27,1.45-.53,2.18-.78s1.25-.42,1.87-.61c.84-.27,1.69-.53,2.54-.77l1.56-.43c1-.26,1.92-.5,2.88-.73l1.25-.28c1.07-.23,2.15-.46,3.23-.65l.92-.16C86.84,9.39,88,9.2,89.24,9L89.82,9c1.31-.16,2.63-.31,4-.42H94c1.42-.12,2.85-.21,4.29-.26C86.16,12.07,75.68,19.85,67.43,27.87A84.36,84.36,0,0,0,39.34,59.59a82.62,82.62,0,0,0-15.78-9.13A92.38,92.38,0,0,1,33.61,37.67ZM185.15,60c-4.22,3-16.66,10.74-27.88,8.44-6.68-1.36-11.91-6.11-15.51-10.62a131.66,131.66,0,0,0,23-15.94C175.76,44.19,182.84,55.7,185.15,60Zm-48.34-9.68c3.54-2.48,12.83-8.32,22.36-8.81A120.05,120.05,0,0,1,138.72,53.6C137.9,52.33,137.26,51.2,136.81,50.35Zm27.52-13.2c-15.46-2.31-31.23,10.14-31.91,10.69a2.31,2.31,0,0,0-.67,2.74,45.58,45.58,0,0,0,2.69,5A120.65,120.65,0,0,1,107,63.87a82.4,82.4,0,0,1-31.88-1.06,58.32,58.32,0,0,1,73.7-37.11,79.44,79.44,0,0,1,16.49,10.4Q164.87,36.61,164.33,37.15ZM54.54,45.05c1.14-1.2,2.32-2.39,3.56-3.53,18.51-17,41.83-25.39,65.05-23l-.53.05a63,63,0,0,0-52,43c-10.31-3-17.86-7.31-21-10.15A70.24,70.24,0,0,1,54.54,45.05ZM85.94,18.5a64.14,64.14,0,0,1,20.23-7.39c13.73-2.29,27.13,2,37.92,7.6A85.25,85.25,0,0,0,85.94,18.5ZM192.2,77.94a6,6,0,1,1-10.12-3.31h0a6,6,0,0,1,8.45,0,5.87,5.87,0,0,1,1.38,2.23C192,77.2,192.11,77.57,192.2,77.94Z" style="fill:#fff"/><path d="M130.06,75.88c-3.16-.52-6.49.38-9.54,1.36a16.22,16.22,0,0,0-6.78,3.68c-.18.19-.36.39-.52.59a1.39,1.39,0,0,0-.6-.53,1,1,0,0,0-1,.21,1.15,1.15,0,0,0-.33,1.1c.12.33.48-.12.67-.17a.5.5,0,0,1,.6.32,29.27,29.27,0,0,0-2.39,6.41A24.94,24.94,0,0,1,108.51,93c-1.76-.84-4.93-1-6.26-1.17-1.88-.28-3.21,0-5-.26a9.18,9.18,0,0,0-1.38-.12,2.29,2.29,0,0,0-.53-1.41c-.69-.64-1.56.83-1.83,1.39a4.71,4.71,0,0,0-.29.77,4.75,4.75,0,0,0-1.84.72l0,0c-.4-.47-.94-1.15-1.45-1.15-.7,0-.28,1.52-.17,1.94.06.24.15.48.23.71a1.71,1.71,0,0,0-.37.5.61.61,0,0,0-.07.14,31.54,31.54,0,0,0-2.36-2.27,13.89,13.89,0,0,0-3.2-2.19l-.76-.34-.15,0a2.32,2.32,0,0,0-.8-1.73c-.13-.11-.63-.42-.74-.14s.26.52.32.7a1.29,1.29,0,0,1,0,.8c-.8-.08-1.59-.28-2.39-.41a15.65,15.65,0,0,0-2.9-.19,11.14,11.14,0,0,0-2.93.35c-.36.1-.7.23-1,.32a6.93,6.93,0,0,0-1.16.33l-.36.17a9.07,9.07,0,0,0-1.4.62c-1,.6-2.09,1.24-3.08,2a19.28,19.28,0,0,0-2.81,2.55,7.94,7.94,0,0,0-1.44,2.15,6.89,6.89,0,0,1,1.44-.08,6.41,6.41,0,0,1,3.86,1.1,6.73,6.73,0,0,1,1.8,2.16,12.65,12.65,0,0,1,2.82-.25,8.12,8.12,0,0,1,4,1,18.24,18.24,0,0,1,4,3.34,33.59,33.59,0,0,1,4,5.52,15.13,15.13,0,0,1,2.1-1.37,11.67,11.67,0,0,1,9.06-1c3,1,5.69,3.46,7.74,6.21a6.36,6.36,0,0,0-.19.62h0a1.38,1.38,0,0,0-.61.61.88.88,0,0,0,0,.76c-.14.44-.14,1,.21,1.22,0,.33.08.65.44.63a.58.58,0,0,0,.47-.39c.17.21.42.49.63.47s.19-.32.17-.52a4.27,4.27,0,0,1,0-1,4.45,4.45,0,0,1,.32-.91,8.14,8.14,0,0,1,.52-1.15,8,8,0,0,0,2.6,1.32,11.78,11.78,0,0,1,1.75.77,12,12,0,0,1,1.7,1.26,18.76,18.76,0,0,1,3.25,3.56,16.27,16.27,0,0,1,2,4.06,8.51,8.51,0,0,1,.38,2.12,6.56,6.56,0,0,0,.51-1.55,17.46,17.46,0,0,0,.26-3c0-1.23,0-2.45.06-3.68s0-2.3,0-3.45a8.67,8.67,0,0,1,.25-2.4l.25.09c.29.09.57.21.86.3a2.61,2.61,0,0,0,.86.16c.15,0,.35,0,.52,0a2.36,2.36,0,0,1,.12.28c.1.31,0,.42,0,.7s.17.26.38.21a.75.75,0,0,0,.54-.7.73.73,0,0,0,.38-.41,1,1,0,0,0,0-.51c.2-.1.11-.42,0-.62-.19-.35-.61-1-1-.77a1.49,1.49,0,0,1-1.14.22,6.85,6.85,0,0,1-1.27-3.79,19.93,19.93,0,0,1,1.75-8.82,4.72,4.72,0,0,1,3.13-2.4,3.4,3.4,0,0,1,2.52.41,12,12,0,0,1,.17-2.74c.68-3.87,3-9.14,6.73-9.68a7.1,7.1,0,0,1,.18-1.71c.54-2.19,2.21-4.93,4.37-5C135.26,76.5,132.6,76.3,130.06,75.88Z" style="fill:#fff"/><path d="M163,92.37a10.52,10.52,0,0,0-7.49,3.12h0a10.6,10.6,0,0,0,13.16,16.45,80.67,80.67,0,0,1-8.21,29.23h0l0,0a2.5,2.5,0,0,0,.24.22c.14.11.26.21.42.32.45.33.9.66,1.32,1s1.14.91,1.72,1.35a85,85,0,0,0,9.41-40.19,10.5,10.5,0,0,0-.08-2.44c0-.16,0-.32,0-.48a2.37,2.37,0,0,0-.29-1A10.59,10.59,0,0,0,163,92.37Zm4.27,14.81a6,6,0,1,1,0-8.45,5.89,5.89,0,0,1,1.63,3.06c0,.64,0,1.29.05,1.93A5.93,5.93,0,0,1,167.27,107.18Z" style="fill:#393a44"/></g></g></svg>